<?xml version="1.0" encoding="UTF-8"?>
<svg version="1.1" viewBox="0 0 2048 598" width="500" height="146" xmlns="http://www.w3.org/2000/svg">
<path transform="translate(264)" d="m0 0h98l2 23 27 1 2 22 5 21 8 19 9 15 9 12 7 6 23 10 15 4 18 3 12 1v21l28 3 1 1v97h-10l-29-3-27-6-23-8-18-8-19-11-10-6-1 211-3 23-5 19-7 19-11 21-11 16-11 13-12 12-14 11-15 10-16 8-12 5-15 5-23 5-24 2-20-1-23-4-24-7-20-9-17-10-14-11-8-8-17-13-11-9-9-9-7-8-11-14-9-15-10-21-5-15-5-21-2-13v-37l6-28 8-24 12-23 12-17 12-14 9-9 11-9 11-8 15-9 17-8 21-7 20-4 7-1 26-1 16 1 3 1v23l1-1 26 1 2 2v98l-11-1-8-1h-16l-14 3-13 5-10 6-10 8-9 10-8 13-5 12-3 15v21l4 17 8 16 4 6 10 4 11 3 7 1h19l17-4 16-8 10-7 8-7 9-12 7-15 4-15 1-10zm36 22v1h61v-1zm-8 1v31h1v-31zm74 9 1 3zm1 4 1 3zm1 3 1 4zm1 4 1 3zm1 3 1 2zm1 3 1 2zm1 2 1 2zm1 2 1 3zm1 3 1 2zm1 2 1 2zm1 2 1 2zm1 2 1 2zm1 2 1 2zm1 2m1 1 1 2zm1 2 1 2zm1 2 1 3v-3zm2 3 1 3v-3zm2 3 1 2zm1 2m1 1 1 3v-3zm2 3m1 1m1 1m1 2m1 1m1 1m1 1m1 1m1 1m-106 4v301h1v-301zm147 33m5 4m3 2m3 2m3 2m3 2m2 1m2 1m4 2m2 1m5 2m2 1m2 1m3 1m3 1m2 1m-121 39v23h1v-20l3-1zm4 3m2 1m2 1m2 1m2 1m2 1m1 1m2 1m2 1m2 1m2 1m2 1m2 1m1 1m2 1m2 1m3 1m-36 4v193h1v-193zm65 8m4 1m3 1m3 1m4 1m4 1m5 1m4 1 4 1zm5 1v1h5v-1zm6 1 4 1zm6 1 4 1zm6 1 4 1zm-291 1v1h10v-1zm297 0v1h5v-1zm-303 1v1h5v-1zm310 0v1l9 1v-2zm-315 1 4 1zm-5 1m-4 1m-4 1m-4 1m-3 1m-3 1m-3 1m-3 1m-2 1m-3 1m-2 1m-2 1m-2 1m-2 1m-2 1m-2 1m-2 1m-2 1m-2 1m-3 2m-2 1m-2 1m-1 1m-2 1m-2 1m-1 1m-3 2m-3 2m-1 1m-2 1m-1 1m-1 1m-3 2m-1 1m-1 1m-4 3m-1 1m-1 1m118 6 1 3zm0 4m-130 2m-1 1m-3 4m-1 1m-1 1m137 0-1 11h2v-11zm-139 3m-1 1m-1 1 1 2zm-1 2m-1 1m100 1v1h36v-1zm-101 1m97 0m-98 1m94 0m-95 1m92 0m-2 1m-91 1m89 0m-90 1m87 0m-2 1m-86 1m84 0m-1 1m-84 1m82 0m-83 1m81 0m-1 1m-81 1m-1 1m79 0m-80 2m76 1m-77 1m-1 2m-1 2m-1 1 1 2zm-1 3m72 0m-1 1m-72 1m71 0m-1 1m-71 1m70 1m-71 1m70 0m-71 2 1 2zm69 1m-70 2m69 0m-1 1m-69 1m68 1m-69 1 1 2zm68 0 1 2zm-1 2m-68 1 1 2zm67 1m-68 2 1 2zm67 0m-68 3m67 0m-1 2m-67 1 1 2zm66 2m-67 1 1 2zm66 2 1 2zm-67 1 1 3zm66 2 1 4zm-67 3m66 2 1 3zm-67 2 1 2zm-1 5 1 2zm-1 6 1 3zm69 16 1 4zm1 5 1 4zm191 3v15h1v-15zm69 1v5h1v-5zm-259 1 1 3zm1 3 1 3zm1 3 1 2zm1 2 1 3zm255 0 1 3zm-254 3 1 2zm1 2 1 2zm252 0 1 3zm-251 2 1 2zm1 2 1 3v-3zm182 0 1 2zm67 1 1 2zm-247 2 1 2zm246 1 1 3zm-245 1m178 0 1 2zm-259 1v7h1v-7zm82 0 1 2zm1 2m175 0 1 2zm67 0 1 2zm-241 1 1 3v-3zm173 2 1 2zm67 0 1 2zm-238 1m-85 1v7l1 5h1l-1-12zm86 0 2 4v-3zm169 1m67 0 1 2zm-68 2 1 2zm-165 1m232 0 1 2zm-231 1m163 0 1 2zm-162 1m1 1m160 0 1 2zm68 0 1 2zm-227 1m1 1m157 0 1 2zm-156 1m224 0 1 2zm-223 1m154 0 1 2zm-248 1v5h1v-5zm96 0m1 1m150 0m69 0 1 2zm-70 2m69 0 1 2zm-70 1 1 2zm-244 1 1 4zm243 1m70 0m-71 1m-1 1 1 2zm71 0 1 2zm-311 1 1 3zm239 1m71 0 1 2zm-72 1m-237 1 1 3zm236 0m72 0 1 2zm-73 1m-1 1m73 0 1 2zm-306 1 1 3zm232 0-2 4 3-2zm73 2m-304 1 1 3zm227 1m76 0m-77 1m-225 1 1 2zm224 0m77 0m-185 1m107 0m77 0 1 2zm-299 1 1 3zm116 0m105 0m-1 1m78 0 1 2zm-179 1m99 0m-217 1 1 2zm120 0m96 0m80 0m-175 1m93 0m-213 1 1 2zm122 0m90 0m82 0m-171 1m87 0m83 0 1 2zm-292 1 1 3zm124 0m84 0m-83 1m81 0m85 0m-164 1m77 0m86 0 1 2zm-289 1 1 2zm128 0m73 0m-71 1m69 0m89 0m-287 1 1 2zm131 0m3 1m59 0m93 0m-285 1 1 2zm135 0m54 0m95 0m-146 1m49 0m-186 1 1 2zm142 0m140 0m-136 1m135 0m-280 1 1 2zm150 0v1h23v-1zm129 0 1 2zm-278 2 1 2zm277 0m-1 1m-275 1 1 2zm274 0v3zm-273 2m271 1m-270 1m269 0m-1 1m-267 1m266 0m-265 1 1 2zm264 0m-1 1m-262 1m260 2m-1 1m-1 1m-1 1m-1 1m-1 1m-1 1m-1 1m-1 1m-1 1m-1 1m-1 1m-1 1m-1 1m-1 1m-4 3m-1 1m-1 1m-1 1m-1 1m-2 1m-1 1m-1 1m-2 1m-1 1m-1 1m-2 1m-1 1m-2 1m-1 1m-2 1m-2 1m-1 1m-2 1m-2 1m-5 3m-2 1m-2 1m-2 1m-2 1m-3 1m-2 1m-2 1m-3 1m-2 1m-3 1m-3 1m-2 1m-7 2m-4 1m-90 1 4 1zm87 0m-82 1m79 0m-74 1m5 1v1h6v-1zm56 0 4 1zm-49 1v1h48v-1z"/>
<path transform="translate(1617,233)" d="m0 0 41 1 14 2 17 5 17 8 15 10 13 11 7 7 11 15 8 14 7 18 4 18 1 6v28l-4 20-5 15-8 16-9 13-12 14-13 11-18 11-16 7-18 5-11 2h-75l-21-5-19-8-17-10-14-12-10-10-11-15-8-15-6-16-4-17-1-8v-24l4-22 7-19 10-18 10-13 16-16 13-9 16-9 17-6 12-3 8-1zm43 5m-78 1m80 0m-120 20m-1 1m-3 2m-1 1m-1 1m170 0m-171 1m-1 1m-1 1m-1 1m-1 1m-1 1m-1 1m-1 1m-1 1m-1 1m191 0m-192 1m193 0m-194 1m195 0m-196 1m197 0m-198 1m-1 1m200 0m-201 1 1 2zm202 0m1 1m-204 1m205 0m-206 1m207 0m-208 1m209 0 1 3v-3zm-211 3m213 0m-214 1m215 0 1 2zm1 2m-218 1m219 0m-220 2m221 0m-222 1m223 0 1 2zm1 2 1 2zm1 2m-228 1m109 0-14 3-14 7-10 8-7 8-8 14-4 15v16l3 12 7 14 8 10 10 8 16 8 8 2 14 1 13-2 12-5 10-6 10-9 6-8 5-10 4-14v-18l-3-12-7-14-8-10-12-9-13-6-15-3zm120 0 1 2zm-230 2m231 0 1 2zm-232 2m233 0 1 2zm-234 2m235 0 1 2zm-236 2m237 0 1 2zm-238 2m239 0 1 2zm1 2 1 3zm-241 1m242 2 1 2zm1 2 1 2zm-245 1m246 2 1 2zm-247 1m248 1 1 3zm-249 2m250 1 1 3zm-251 2m252 2 1 3zm-253 2m-1 3 1 2zm255 0 1 2zm1 4v5h1v-5zm-257 1 1 3zm-1 5v6h1v-6zm259 1v5h1v-5zm-260 14v14h1v-14zm260 17 1 4zm-259 1v7h1v-7zm1 7v5h1v-5zm257 0 1 4zm-256 5v5h1v-5zm255 1 1 2zm-254 4 1 4zm253 0 1 2zm-1 3 1 3zm-251 1 1 3zm1 3 1 3zm249 0 1 2zm-248 3 1 3zm247 0m-246 3 1 3zm245 0m-1 2 1 2zm-243 1 1 2zm1 2 1 5 5 9 1-2-6-12zm241 0m-1 2 1 2zm-1 2 1 2zm-1 3m-1 2m-1 2m-1 1m-228 2 1 3v-3zm227 0m-1 2m-224 1 1 2zm223 0m-222 2 1 3v-3zm221 0m-219 3m217 0m-216 1 1 2zm1 2m213 0m-212 1 1 3v-3zm211 0m-209 3m207 0m-206 1 2 4v-3zm205 0m-1 1m-1 1m-1 1m-199 1m1 1m1 1 2 4 3 2-2-4zm191 4m-186 2m1 1m1 1m1 1m1 1m2 1m1 1m1 1m1 1m1 1m3 2m131 16m-90 4 1 2 4-1zm78 0m-5 1v1h5v-1z" fill="#010000"/>
<path transform="translate(1798,175)" d="m0 0h73l1 1v144l8-7 65-65 2-1h90l-4 5-8 7-53 53-8 7-20 20 10 15 13 19 16 23 13 19 32 46 13 19 7 9v1h-81l-14-20-12-17-16-23-12-17-16-23-3-2-8 8-11 9-2 2-1 81-2 1h-72l-1-1v-312z" fill="#010000"/>
<path transform="translate(992,175)" d="m0 0h73l2 1v140l-1 4 6-4 68-68 2-1h90l-6 7-4 4h-2l-1 3-8 7-34 34-8 7-23 23-7 6 2 5 12 17 13 19 16 23 11 16 16 23 33 48v1h-80l-13-18-11-16-28-40-16-23-2-5-5 2-13 12-6 5-1 81-17 1h-57l-1-1z" fill="#010000"/>
<path transform="translate(635,175)" d="m0 0h236l-1 5-19 60-2 2h-61v246l-52 1h-24l-1-1v-248h-76z" fill="#010000"/>
<path transform="translate(1261,175)" d="m0 0h235l-1 7-18 57-2 3h-62l1 5-1 241-2 1h-74v-249h-76l-1-3v-61z" fill="#010000"/>
<path transform="translate(499,158)" d="m0 0 28 3 1 1v97h-10l-29-3-27-6-23-8-18-8-19-11-10-6-1 211-3 23-5 19-7 19-11 21-11 16-11 13-12 12-14 11-15 10-16 8-12 5-15 5-23 5-24 2-20-1-23-4-24-7-20-9-17-10-14-11-8-8h3l16 8 17 7 14 4v2h9l3 1h3v2l10-1v1h43l3-1 5-1 9-1 2-1 2 1 1-2 11-3 2-1 2 1 1-2 7-1 1-2 16-8 7-2 1-2 4-1 1-2 4-2 2-2 6-4 7-7 6-4 11-11 7-8 7-9v-2l2-2 5-7v-2l3-3 3-8h2l3-11h2v-5h2l4-18h2l-1-4h2l-1-4h2l-1-5h2l-1-6 1-1v-10h2v-193l1-20h5l6 3v2l5 2 8 3v2l40 16 9 2v2l4-1v2l4-1v2l5-1v2l4-1v2l6-1 4 1 1 2 6-1v2l6-1v2l6-1v2l8-1v1l7 1 3-1z" fill="#F80050"/>
<path transform="translate(264)" d="m0 0h98l2 22-6 2h-65v399l-1 4-1 8-1 4h-2l1 3h-2l1 3-1 2h-2l-4 12-5 5-7 8-3 4-8 6-6 4-3 3-10 4-2 1-2-1-1 2-13 3h-25v-2l-4 1-16-6-18-10-9-7-4-7 9 2 11 3 7 1h19l17-4 16-8 10-7 8-7 9-12 7-15 4-15 1-10z" fill="#00F8F7"/>
<path transform="translate(887,275)" d="m0 0 73 1v212l-19 1h-54l-2-2v-210z"/>
<path transform="translate(178,210)" d="m0 0 25 1 3 1v22l-9 1-2 1-10-1-1 2-10 1-5 1-18 5h-3l-1 2h-4l-1 2h-4l-1 2-11 5h-2l-1 2-6 2-1 2-4 1-1 2-2 2h-3l-1 3h-2l-2 2-5 4-6 5-7 7-6 7-2 1-5 5-1 3-5 5v2l-3 3-2 4h-2l-1 5-2 2-1 3h-2l-2 5-4 11h-2l-1 7h-2l1 3h-2l-1 8-1 4h-2l1 3h-2l1 4-2 7-1 8-1 4-2 19v14l2 13 1 14 4 17 6 16 9 19 3 3 1 4 4 4 10 14 7 9h-3l-9-7-12-11-11-12-10-13-9-15-10-21-5-15-5-21-2-13v-37l6-28 8-24 12-23 12-17 12-14 9-9 11-9 11-8 15-9 17-8 21-7 20-4 7-1z" fill="#00F8F7"/>
<path transform="translate(207,234)" d="m0 0 26 1 2 2v98l-11-1-8-1h-16l-14 3-13 5-10 6-10 8-9 10-8 13-5 12-3 15v21l4 17 8 16 1 4-10-4-7-7-8-9-9-14-5-12v-3l-2-1-2-12v-21l1-7 1-4h2l-1-3 4-9 6-12h2v-3l6-6 3-5 5-4h2l1-3h3v-2l6-2 1-2 7-2 1-2 6-2h4l1-2 3 1 1-2 33 1 10 1-1-1v-57h1z" fill="#F80150"/>
<path transform="translate(1644,234)" d="m0 0h14l14 2 17 5 17 8 15 10 13 11 7 7 11 15 8 14 7 18 4 18 1 6v28l-4 20-5 15-8 16-9 13-12 14-13 11-18 11-16 7-18 5-11 2h-17v-1l14-2 1-2h5l12-5 16-8 14-10 10-9h2l4-7 6-5 1-3 2-1 1-3h2v-3h2l1-5h2l2-7 1-2h2l1-7h2v-5l1-3h2l-1-3h2l-1-4h2l-1-4h2l-1-4h2l-1-7 3-1-1-35h-2l1-7h-2l-1-6 1-3-2-1-1-8-2-1-3-9-8-15-2-2-6-9-7-8-4-2-7-7v-2l-5-2-9-7-18-10-13-5-18-5z" fill="#F80251"/>
<path transform="translate(1585,234)" d="m0 0h12l-1 2-15 3-19 8-15 10-5 3-1 2-5 3-15 15-10 14-6 11-7 18-5 20-1 15v14l1 4v7l4 17 6 16 6 11 12 17 12 13 6 5 3 1v2l5 2 13 8 10 5 10 4 9 3 11 2v1h-17l-21-5-19-8-17-10-14-12-10-10-11-15-8-15-6-16-4-17-1-8v-24l4-22 7-19 10-18 10-13 16-16 13-9 16-9 17-6 12-3z" fill="#01F6F5"/>
<path transform="translate(918,175)" d="m0 0h9l11 3 9 6 7 7 5 11 1 4v13l-5 12-9 10-8 5-10 3h-11l-10-3-9-6-7-8-4-8-2-8v-7l3-11 5-9 9-8 8-4z" fill="#020000"/>
<path transform="translate(367,23)" d="m0 0 24 1 2 22 5 21 8 19 9 15 6 8v2l-5-2-11-9-11-12-2-2-7-11-8-13-5-11v-2l-2-1-2-12-2-1 1-3h-2l-1-8z" fill="#F90150"/>
<path transform="translate(431,120)" d="m0 0 9 3 20 8 19 4 20 2v21l-13-3-6-2v-2l-6-1-7-3-16-8v-2h-3v-2l-5-2-3-2v-2h-2l-7-8z" fill="#02F8F7"/>
</svg>
